# xmcd CD database file
#
# Track frame offsets:
#	150
#	25345
#	43757
#	68955
#	98561
#	332550
#
# Disc length: 4440 seconds
#
# Revision: 0
# Processed by: cddbd v1.5PL3 Copyright (c) Steve Scherf et al.
# Submitted via: CDex 1.51
#
DISCID=4a115606
DTITLE=Soulhead - You can do that
DYEAR=2004
DGENRE=JPop
TTITLE0=You can do that
TTITLE1=words of love
TTITLE2=You can do that -instrumental-
TTITLE3=words of love -instrumental-
TTITLE4=LGCD2 Data
TTITLE5=LGCD2 Data
EXTD=YEAR: 2004
EXTT0=
EXTT1=
EXTT2=
EXTT3=
EXTT4=
EXTT5=
PLAYORDER=
